<svg width="196" height="46" xmlns="http://www.w3.org/2000/svg" xmlns:xlink="http://www.w3.org/1999/xlink"><defs><path d="M13.28 32.92C5.52 29.403.12 21.59.12 12.515A22.29 22.29 0 013.871.105h28.525v32.51c-.213.105-.429.207-.646.305H13.28z" id="a"/><path d="M.121 22.676c0 12.366 10.026 22.393 22.394 22.393 12.367 0 22.393-10.027 22.393-22.393C44.908 10.307 34.882.282 22.515.282 10.147.282.12 10.307.12 22.676z" id="c"/><path id="e" d="M12.036.028v12.886H.101V.028h11.935z"/></defs><g fill="none" fill-rule="evenodd"><path d="M.516 22.651C.516 10.283 10.542.257 22.909.257c12.368 0 22.393 10.026 22.393 22.394 0 12.366-10.025 22.393-22.393 22.393C10.542 45.044.516 35.017.516 22.651" fill="#FFDC00"/><g transform="translate(.395 10.136)"><mask id="b" fill="#fff"><use xlink:href="#a"/></mask><path d="M32.396 6.61L27.195.364c-3.227-.912-7.341.576-12.34 4.46l-16.648 16.65 4.31 11.446 8.77-2.676 8.77-6.094 5.353-6.245L32.396 6.61z" fill="#1D5D78" mask="url(#b)"/></g><g transform="translate(.395 -.025)"><mask id="d" fill="#fff"><use xlink:href="#c"/></mask><path d="M25.159 12.485a4.843 4.843 0 00-1.375-.19c-.664 0-1.454.089-2.371.267 1.529-.84 2.957-1.275 4.281-1.3l-.535 1.223zm5.657-7.032l2.98-6.994.995-2.522c.127-.255.37-.815.726-1.682 1.86.102 2.79.548 2.79 1.338 0 .204-.04.471-.115.803-.126.586-.879 2.28-2.255 5.082L29.899 13.67c.076-1.707-.318-2.866-1.186-3.478l2.103-4.739zm8.255-17.886c.179-.05.345-.076.497-.076.127 0 .217.025.267.076v.917c.129 1.07.192 1.707.192 1.911v1.835c-.69.102-1.95.254-3.784.459l2.828-5.122zM13.158 38.13l1.912-2.102 2.255-2.33.114 1.26c-1.784 1.81-3.53 3.16-5.236 4.052l.955-.88zm10.74-22.51c-.381-.357-.98-.892-1.796-1.606a24.383 24.383 0 01-.23-.115c1.224-.585 2.23-.815 3.02-.687l-.993 2.408zm-.382 7.298h-.497l3.592-8.063c.204.637.28 1.44.23 2.407-.127.765-.394 1.427-.803 1.988-.51.765-1.26 1.897-2.254 3.402-.052.05-.14.139-.268.266zM5.592 38.358c.661-.534 2.675-1.986 6.038-4.356 1.478-1.019 2.562-1.885 3.249-2.599l2.178-1.147c.05.892.102 1.656.154 2.294a73.089 73.089 0 01-2.141 2.37 50.787 50.787 0 01-3.516 3.248c-1.325 1.121-2.612 1.733-3.86 1.834-1.07-.179-1.834-.7-2.293-1.566l.19-.078zM9.988 24.83c1.655-2.165 3.731-4.433 6.228-6.804l2.751.651c.51.128.764.42.764.878 0 .358-.196.97-.591 1.835-.394.867-.618 1.478-.669 1.834l-2.177 3.938c0 .202-.167.305-.498.305-.332.102-.536.23-.61.383-1.556 1.503-3.569 3.057-6.04 4.662-1.477.942-2.752 1.58-3.822 1.911.74-3.26 2.293-6.46 4.664-9.593zM27.91 11.988c.662.714.79 2.039.382 3.976l-.153-.421a6.757 6.757 0 00-1.03-1.758l.801-1.797zM50.613-9.797h-6.84c.05.332.114.778.19 1.338-.535.102-1.057.191-1.567.268.28-1.173.42-2.115.42-2.828 0-1.095-.23-2.063-.688-2.905l-.19-2.254c-.483-.28-1.019-.179-1.605.306-1.938 1.325-3.39 2.815-4.357 4.471a128.217 128.217 0 01-2.255 3.707 10.845 10.845 0 01-.918 2.523c-.305.662-.827 1.783-1.567 3.363l-3.555 8.14-1.299 3.21c-.432-.025-.61-.037-.534-.037-2.447 0-5.352.993-8.716 2.98-3.234 1.886-6.33 4.37-9.285 7.454-4.51 3.77-7.428 7.884-8.754 12.344a31.324 31.324 0 00-.686 2.828c-.051.407-.077 1.185-.077 2.33 0 .485.077.995.23 1.53.457 3.158 2.446 4.739 5.961 4.739 4.026 0 8.23-2.204 12.611-6.612-.1.663-.164 1.21-.189 1.644 0-.025.012.089.037.343l-2.025 7.836c1.223-.154 3.312-.383 6.269-.688l2.522-1.95c.103.331.293.879.572 1.644a7.3 7.3 0 01.573-.078c-.178-.84-.433-1.936-.763-3.285.636-.358 1.26-.739 1.872-1.147 1.071.306 2.217.458 3.44.458 3.185 0 6.51-1.21 9.975-3.63 2.472-1.707 4.153-3.223 5.044-4.548l-.879-.88c-2.37 1.962-4.139 3.286-5.31 3.976-1.912 1.12-3.76 1.681-5.544 1.681a8.18 8.18 0 01-2.368-.344 49.777 49.777 0 002.827-2.829l1.758-1.91 1.11-1.223 2.368-2.829 2.064-2.598.42-.612.382-.802-.381-.306c-.077.076-.14.116-.19.116-.205.076-.473.406-.805.992l-2.1 2.637-1.453 1.797-.994 1.337-.61.383-2.18 2.33-.154.154-.306-.306a196.627 196.627 0 01-3.285 3.02c-1.478-.867-2.422-2.153-2.829-3.861 1.071-2.243 3.185-6.587 6.344-13.033L48.625-4.14c1.046-1.605 1.67-2.649 1.875-3.133.177-.612.214-1.453.113-2.524z" fill="#FFF" mask="url(#d)"/></g><path d="M56.446 18.67c0 2.737.986 4.107 2.958 4.107.904 0 1.62-.357 2.146-1.068.532-.711.799-1.724.799-3.039 0-2.697-.982-4.047-2.945-4.048-.905 0-1.625.356-2.159 1.067-.533.712-.8 1.706-.8 2.981zm-3.016 0c0-1.894.545-3.436 1.636-4.627 1.098-1.191 2.543-1.787 4.338-1.787 1.886 0 3.35.573 4.395 1.717 1.045 1.145 1.565 2.71 1.565 4.697 0 1.98-.532 3.554-1.599 4.721-1.06 1.169-2.513 1.752-4.361 1.752-1.887 0-3.357-.588-4.408-1.764-1.045-1.183-1.566-2.751-1.566-4.709zm17.286-3.224v6.484c.426.502 1 .754 1.73.754 1.397 0 2.387-.333 2.967-.998.588-.665.882-1.728.883-3.19 0-2.52-1.208-3.78-3.62-3.78-.858 0-1.512.243-1.96.73m-.614 8.78l-.65.917h-1.635V7.86l2.899-.696v5.8a4.764 4.764 0 012.529-.708c1.817 0 3.282.577 4.395 1.728 1.113 1.146 1.671 2.614 1.671 4.408 0 2.08-.562 3.727-1.683 4.942-1.12 1.205-2.64 1.809-4.557 1.809-1.152 0-2.142-.306-2.97-.917m11.359-.116l1.033-2.31a4.584 4.584 0 002.935 1.034c1.128 0 1.692-.402 1.692-1.207 0-.471-.17-.856-.51-1.159-.34-.302-1.001-.657-1.983-1.067-2.142-.889-3.213-2.134-3.213-3.735 0-1.074.41-1.91 1.23-2.505.82-.603 1.866-.905 3.142-.905 1.291 0 2.505.29 3.642.87l-.835 2.25c-.634-.541-1.516-.811-2.644-.812-1.013 0-1.52.402-1.52 1.207 0 .317.167.603.499.859.333.254 1.045.6 2.135 1.031 1.09.426 1.875.944 2.353 1.554.48.61.72 1.35.72 2.215 0 1.153-.43 2.062-1.287 2.727-.85.657-2.01.986-3.48.986-.828 0-1.493-.07-1.995-.21-.495-.13-1.133-.404-1.914-.823m13.68-6.704h6.1c-.2-1.817-1.206-2.725-3.015-2.726-1.655 0-2.685.909-3.086 2.726m8.768 2.18h-8.872c.053.99.394 1.76 1.02 2.309.627.549 1.469.824 2.53.824 1.322 0 2.326-.344 3.015-1.033l1.125 2.216c-1.022.827-2.545 1.24-4.57 1.24-1.895 0-3.395-.552-4.5-1.658-1.1-1.114-1.647-2.663-1.647-4.65 0-1.957.603-3.542 1.81-4.756 1.213-1.214 2.666-1.822 4.36-1.822 1.8 0 3.247.538 4.338 1.613 1.09 1.074 1.635 2.444 1.635 4.105 0 .356-.081.894-.244 1.613m10.108-4.397a3.05 3.05 0 00-1.707-.51c-.672 0-1.272.306-1.797.917-.517.611-.777 1.356-.777 2.24v7.073h-2.9V12.49h2.9v1.136c.812-.912 1.89-1.369 3.236-1.369.99 0 1.747.151 2.273.452l-1.228 2.483zm8.482 9.953h-1.044l-5.614-12.655h3.177l2.97 7.585 3.19-7.585h3.073zm14.374-6.079c-.495-.1-.866-.15-1.113-.15-2.288 0-3.433.75-3.433 2.25 0 1.113.645 1.67 1.938 1.67 1.738 0 2.608-.87 2.608-2.61v-1.16zm.28 4.606c-.264.433-.724.788-1.382 1.066a5.238 5.238 0 01-2.04.407c-1.338 0-2.39-.334-3.155-.998-.767-.673-1.149-1.624-1.149-2.853 0-1.439.538-2.563 1.613-3.375 1.083-.813 2.616-1.219 4.605-1.219.339 0 .741.059 1.206.174 0-1.461-.925-2.192-2.773-2.192-1.09 0-2.002.182-2.737.546l-.626-2.25c.997-.48 2.185-.72 3.56-.72 1.895 0 3.282.433 4.164 1.3.882.858 1.323 2.49 1.323 4.894v2.656c0 1.654.332 2.694.996 3.12-.239.418-.505.673-.8.766-.293.1-.63.15-1.009.15-.417 0-.792-.154-1.124-.463-.333-.31-.557-.645-.672-1.01zm6.545-8.85h-1.439v-2.332h1.439V9.96l2.9-1.067v3.595h3.41v2.332h-3.41v5.439c0 .89.138 1.52.416 1.89.28.364.766.546 1.462.546a3.61 3.61 0 001.949-.568v2.668c-.673.231-1.632.348-2.877.348-1.237 0-2.188-.348-2.853-1.045-.666-.702-.997-1.7-.997-2.992V14.82zm11.544 3.85c0 2.737.986 4.107 2.958 4.107.904 0 1.62-.357 2.145-1.068.535-.711.8-1.724.8-3.039 0-2.697-.982-4.047-2.945-4.048-.904 0-1.624.356-2.157 1.067-.535.712-.801 1.706-.801 2.981m-3.016 0c0-1.894.545-3.436 1.636-4.627 1.098-1.191 2.544-1.787 4.338-1.787 1.887 0 3.351.573 4.396 1.717 1.043 1.145 1.566 2.71 1.566 4.697 0 1.98-.534 3.554-1.6 4.721-1.061 1.169-2.514 1.752-4.362 1.752-1.887 0-3.357-.588-4.408-1.764-1.043-1.183-1.566-2.751-1.566-4.709m21.798-3.48a3.045 3.045 0 00-1.705-.51c-.672 0-1.272.306-1.797.917-.518.611-.777 1.356-.777 2.24v7.073h-2.9V12.49h2.9v1.136c.812-.912 1.89-1.369 3.236-1.369.989 0 1.747.151 2.273.452l-1.23 2.483zm4.11 9.72V14.866h-1.59v-2.378h4.525V24.91h-2.935zm1.497-17.235c.463 0 .858.166 1.182.498.333.325.499.72.499 1.183 0 .464-.166.863-.499 1.195a1.61 1.61 0 01-1.182.487c-.465 0-.863-.162-1.195-.487a1.647 1.647 0 01-.487-1.195c0-.463.162-.858.487-1.183a1.63 1.63 0 011.195-.498z" fill="#3C96AF"/><g transform="translate(183.893 12.228)"><mask id="f" fill="#fff"><use xlink:href="#e"/></mask><path d="M3.118 6.442c0 2.737.985 4.107 2.956 4.107.905 0 1.62-.357 2.146-1.068.534-.711.8-1.724.8-3.039 0-2.698-.982-4.047-2.946-4.048-.904 0-1.624.356-2.157 1.067-.534.712-.8 1.705-.8 2.981m-3.016 0c0-1.894.545-3.437 1.636-4.628C2.834.624 4.28.028 6.074.028c1.887 0 3.353.572 4.396 1.717 1.044 1.144 1.567 2.71 1.567 4.697 0 1.98-.535 3.553-1.602 4.72-1.058 1.17-2.514 1.752-4.36 1.752-1.888 0-3.357-.588-4.408-1.763C.623 9.968.1 8.4.1 6.442" fill="#3C96AF" mask="url(#f)"/></g><path d="M83.229 35.662a2.07 2.07 0 00-.054-.5c-.176-.744-.826-1.368-1.72-1.368-1.231 0-1.962 1.083-1.962 2.518 0 1.327.663 2.423 1.935 2.423.799 0 1.53-.54 1.747-1.421.04-.162.054-.325.054-.514v-1.138zm1.178-5.726v7.92c0 .581.026 1.245.053 1.691h-1.055l-.055-1.136h-.04c-.352.73-1.137 1.285-2.207 1.285-1.584 0-2.815-1.34-2.815-3.33-.013-2.18 1.354-3.505 2.938-3.505 1.015 0 1.678.474 1.975.988h.028v-3.913h1.178zm7.661 5.7c.013-.745-.312-1.923-1.652-1.923-1.219 0-1.732 1.097-1.826 1.923h3.478zm-3.493.852c.028 1.611 1.043 2.274 2.247 2.274.853 0 1.382-.148 1.815-.34l.216.856c-.42.187-1.15.418-2.193.418-2.017 0-3.221-1.34-3.221-3.316 0-1.977 1.164-3.52 3.072-3.52 2.152 0 2.708 1.87 2.708 3.073 0 .243-.015.42-.04.555h-4.604zm12.02 3.059h1.191v-9.611h-1.19zm8.162-3.343c-1.3-.028-2.774.203-2.774 1.475 0 .786.514 1.137 1.11 1.137.866 0 1.42-.54 1.61-1.097.04-.134.054-.27.054-.379v-1.136zm1.151 1.774c0 .568.027 1.123.094 1.57h-1.068l-.096-.826h-.04c-.365.514-1.07.974-2.004.974-1.326 0-2.003-.934-2.003-1.88 0-1.585 1.408-2.452 3.939-2.437v-.136c0-.528-.149-1.516-1.489-1.502-.622 0-1.258.176-1.719.486l-.27-.797c.541-.34 1.34-.57 2.166-.57 2.002 0 2.49 1.367 2.49 2.666v2.452zm12.29-2.316a2.03 2.03 0 00-.055-.5 1.752 1.752 0 00-1.718-1.368c-1.231 0-1.963 1.083-1.963 2.518 0 1.327.664 2.423 1.936 2.423.799 0 1.53-.54 1.745-1.421.042-.162.055-.325.055-.514v-1.138zm1.179-5.726v7.92c0 .581.026 1.245.053 1.691h-1.056l-.054-1.136h-.04c-.353.73-1.137 1.285-2.207 1.285-1.584 0-2.815-1.34-2.815-3.33-.013-2.18 1.354-3.505 2.937-3.505 1.016 0 1.679.474 1.976.988h.027v-3.913h1.179zm7.661 5.7c.013-.745-.312-1.923-1.652-1.923-1.218 0-1.732 1.097-1.828 1.923h3.48zm-3.493.852c.027 1.611 1.042 2.274 2.247 2.274.853 0 1.38-.148 1.813-.34l.217.856c-.419.187-1.15.418-2.192.418-2.017 0-3.222-1.34-3.222-3.316 0-1.977 1.164-3.52 3.073-3.52 2.152 0 2.707 1.87 2.707 3.073 0 .243-.014.42-.041.555h-4.602zm7.634-1.718c0-.69-.026-1.233-.054-1.774h1.043l.053 1.07h.04c.366-.624.975-1.205 2.073-1.205.879 0 1.556.54 1.84 1.313h.027c.203-.38.474-.65.745-.854.392-.297.812-.46 1.435-.46.879 0 2.166.57 2.166 2.843v3.844h-1.165v-3.694c0-1.274-.474-2.019-1.421-2.019-.69 0-1.205.502-1.42 1.07-.056.176-.097.38-.097.596v4.047h-1.163v-3.925c0-1.043-.46-1.788-1.368-1.788-.73 0-1.286.597-1.475 1.193a1.578 1.578 0 00-.094.58v3.94h-1.165V34.77zm13.551 1.516c0 1.434.811 2.517 1.974 2.517 1.138 0 1.99-1.07 1.99-2.546 0-1.11-.554-2.504-1.962-2.504-1.395 0-2.003 1.3-2.003 2.533m5.184-.069c0 2.422-1.692 3.48-3.262 3.48-1.76 0-3.14-1.3-3.14-3.37 0-2.18 1.448-3.466 3.248-3.466 1.882 0 3.154 1.366 3.154 3.356m7.688 3.101c-.311.147-1.002.378-1.881.378-1.977 0-3.262-1.34-3.262-3.344 0-2.016 1.38-3.491 3.519-3.491.705 0 1.327.176 1.652.352l-.271.907c-.285-.15-.731-.312-1.381-.312-1.503 0-2.315 1.123-2.315 2.478 0 1.516.975 2.449 2.275 2.449.677 0 1.123-.162 1.46-.312l.204.895zm2.911-4.278c0-.772-.014-1.435-.055-2.043h1.043l.053 1.3h.042c.297-.881 1.028-1.436 1.826-1.436.123 0 .217.013.325.026v1.124c-.121-.027-.244-.027-.405-.027-.84 0-1.435.623-1.597 1.516-.028.162-.04.366-.04.555v3.492h-1.192V35.04zm9.326 1.164c-1.3-.028-2.775.203-2.775 1.475 0 .786.514 1.137 1.11 1.137.866 0 1.421-.54 1.611-1.097a1.32 1.32 0 00.054-.379v-1.136zm1.15 1.774c0 .568.028 1.123.096 1.57h-1.07l-.095-.826h-.04c-.366.514-1.07.974-2.003.974-1.327 0-2.004-.934-2.004-1.88 0-1.585 1.407-2.452 3.939-2.437v-.136c0-.528-.15-1.516-1.489-1.502-.622 0-1.259.176-1.72.486l-.27-.797c.542-.34 1.34-.57 2.166-.57 2.003 0 2.49 1.367 2.49 2.666v2.452zm8.108 1.34c-.31.147-1 .378-1.881.378-1.975 0-3.262-1.34-3.262-3.344 0-2.016 1.38-3.491 3.519-3.491.704 0 1.327.176 1.652.352l-.27.907c-.285-.15-.733-.312-1.382-.312-1.502 0-2.315 1.123-2.315 2.478 0 1.516.975 2.449 2.274 2.449a3.4 3.4 0 001.463-.312l.202.895zm2.911.229h1.19v-6.55h-1.19v6.55zm1.327-8.393c0 .407-.285.731-.758.731-.434 0-.718-.324-.718-.73 0-.406.297-.745.744-.745.433 0 .732.326.732.744zm6.808 5.05c-1.3-.028-2.775.203-2.775 1.475 0 .786.515 1.137 1.11 1.137.866 0 1.42-.54 1.611-1.097.04-.134.054-.27.054-.379v-1.136zm1.15 1.774c0 .568.028 1.123.096 1.57h-1.07l-.095-.826h-.04c-.366.514-1.07.974-2.004.974-1.326 0-2.003-.934-2.003-1.88 0-1.585 1.407-2.452 3.938-2.437v-.136c0-.528-.149-1.516-1.488-1.502-.623 0-1.26.176-1.719.486l-.27-.797c.54-.34 1.339-.57 2.165-.57 2.004 0 2.49 1.367 2.49 2.666v2.452z" fill="#6B8CA3"/></g></svg>